<svg width="30px" height="30px" viewBox="0 0 30 30" version="1.1" xmlns="http://www.w3.org/2000/svg" xmlns:xlink="http://www.w3.org/1999/xlink">
    <title>Status Icon</title>
    <defs>
        <filter id="filter-1">
            <feColorMatrix in="SourceGraphic" type="matrix" values="0 0 0 0 0.000000 0 0 0 0 0.400000 0 0 0 0 1.000000 0 0 0 1.000000 0"></feColorMatrix>
        </filter>
    </defs>
    <g id="Page-1" stroke="none" stroke-width="1" fill="none" fill-rule="evenodd">
        <g id="首屏备份" transform="translate(-1517.000000, -993.000000)">
            <g id="编组-6" transform="translate(1501.000000, 967.000000)">
                <g id="Status-Icon" transform="translate(16.000000, 26.000000)">
                    <circle id="Oval" fill="#E6F7FF" cx="15" cy="15" r="15"></circle>
                    <g id="Status-Icon" transform="translate(5.000000, 5.000000)" filter="url(#filter-1)">
                        <g>
                            <path d="M10,0 C15.5228475,0 20,4.4771525 20,10 C20,15.5228475 15.5228475,20 10,20 C4.4771525,20 0,15.5228475 0,10 C0,4.4771525 4.4771525,0 10,0 Z M10,2.5 C5.85786438,2.5 2.5,5.85786438 2.5,10 C2.5,14.1421356 5.85786438,17.5 10,17.5 C14.1421356,17.5 17.5,14.1421356 17.5,10 C17.5,5.85786438 14.1421356,2.5 10,2.5 Z M10,12.75 C10.7939093,12.75 11.4375,13.3935907 11.4375,14.1875 C11.4375,14.9814093 10.7939093,15.625 10,15.625 C9.20609067,15.625 8.5625,14.9814093 8.5625,14.1875 C8.5625,13.3935907 9.20609067,12.75 10,12.75 Z M10.625,4.375 C10.970178,4.375 11.25,4.65482203 11.25,5 L11.25,11.25 C11.25,11.595178 10.970178,11.875 10.625,11.875 L9.375,11.875 C9.02982203,11.875 8.75,11.595178 8.75,11.25 L8.75,5 C8.75,4.65482203 9.02982203,4.375 9.375,4.375 L10.625,4.375 Z" id="Path" fill="#202D40" fill-rule="nonzero" transform="translate(10.000000, 10.000000) scale(1, -1) translate(-10.000000, -10.000000) "></path>
                        </g>
                    </g>
                </g>
            </g>
        </g>
    </g>
</svg>