<svg width="72" height="72" viewBox="0 0 72 72" fill="none" xmlns="http://www.w3.org/2000/svg">
<g opacity="0.9">
<path d="M35.8672 16.9764C35.9902 13.6291 36.9307 10.6889 38.6663 8.2311C40.4108 5.76084 43.2947 4.00605 47.2423 3.01172C47.2685 3.13328 47.2958 3.25491 47.3242 3.37608V4.01208C47.3242 5.45424 46.9744 7.10793 46.2839 8.92691C45.5603 10.6881 44.4295 12.3457 42.9275 13.8417C41.5228 15.1599 40.2232 16.0326 39.0746 16.4271C38.6954 16.5404 38.1755 16.6518 37.5476 16.7522C36.9892 16.8392 36.4289 16.914 35.8672 16.9764Z" fill="white"/>
<path d="M36.5243 21.9435C32.0653 21.9435 28.9694 17.9998 24.571 17.9998C20.1727 17.9998 11.1113 22.0426 11.1113 35.9998C11.1113 49.957 19.1579 58.9498 20.0579 59.9998C20.9578 61.05 23.0392 63.7491 26.2637 63.7491C29.4884 63.7491 33.0187 61.1853 36.5243 61.1853C40.0298 61.1853 44.4422 63.7491 47.3228 63.7491C50.2034 63.7491 51.3883 62.5747 53.3488 60.5493C55.3091 58.5238 59.0485 52.3428 60.3544 48.633C58.2034 47.3526 52.5022 43.8766 52.5022 35.9998C52.5022 30.7488 54.4211 26.3863 58.2592 22.9128C55.7413 19.6375 52.8211 17.9998 49.4984 17.9998C44.5144 17.9998 40.9834 21.9435 36.5243 21.9435Z" fill="white" stroke="white" stroke-width="1.33333" stroke-linejoin="round"/>
</g>
</svg>
